<svg width="144" height="44" viewBox="0 0 144 44" fill="none" xmlns="http://www.w3.org/2000/svg">
<path d="M25.332 17L20.88 31H16.428L13.376 21.116L10.436 31H6.012L1.56 17H5.62L8.42 27.92L11.556 17H15.336L18.472 27.92L21.272 17H25.332ZM40.4761 28.676C40.8681 28.676 41.1854 28.6387 41.4281 28.564L41.1481 30.888C40.6254 31.1493 40.0187 31.28 39.3281 31.28C37.5361 31.28 36.4627 30.58 36.1081 29.18C35.6974 29.8707 35.0627 30.3933 34.2041 30.748C33.3454 31.1027 32.3281 31.28 31.1521 31.28C29.7894 31.28 28.7254 30.972 27.9601 30.356C27.1947 29.74 26.8121 28.8533 26.8121 27.696C26.8121 25.4187 28.6321 23.944 32.2721 23.272L35.6321 22.628V21.956C35.6321 21.2093 35.4174 20.6213 34.9881 20.192C34.5774 19.744 33.9987 19.52 33.2521 19.52C32.3934 19.52 31.6934 19.7067 31.1521 20.08C30.6107 20.4533 30.2374 21.06 30.0321 21.9L26.9801 20.612C27.2787 19.3987 27.9507 18.4467 28.9961 17.756C30.0414 17.0653 31.4041 16.72 33.0841 16.72C35.0814 16.72 36.6401 17.1587 37.7601 18.036C38.8801 18.8947 39.4401 20.1733 39.4401 21.872V27.612C39.4401 27.9853 39.5241 28.256 39.6921 28.424C39.8601 28.592 40.1214 28.676 40.4761 28.676ZM32.3561 28.676C33.1774 28.676 33.9241 28.48 34.5961 28.088C35.2867 27.6773 35.6321 27.1267 35.6321 26.436V24.98L32.6361 25.652C32.0014 25.8013 31.5254 26.0067 31.2081 26.268C30.9094 26.5107 30.7601 26.856 30.7601 27.304C30.7601 27.752 30.9001 28.0973 31.1801 28.34C31.4601 28.564 31.8521 28.676 32.3561 28.676ZM47.5382 26.548C47.5382 27.22 47.6315 27.6867 47.8182 27.948C48.0235 28.2093 48.3875 28.34 48.9102 28.34C49.2275 28.34 49.4982 28.3213 49.7222 28.284C49.9649 28.228 50.2449 28.144 50.5622 28.032L50.2262 30.692C49.9275 30.8787 49.5355 31.0187 49.0502 31.112C48.5649 31.224 48.0889 31.28 47.6222 31.28C46.2595 31.28 45.2609 30.9533 44.6262 30.3C44.0102 29.628 43.7022 28.564 43.7022 27.108V10.868H47.5382V26.548ZM56.4796 26.548C56.4796 27.22 56.5729 27.6867 56.7596 27.948C56.9649 28.2093 57.3289 28.34 57.8516 28.34C58.1689 28.34 58.4396 28.3213 58.6636 28.284C58.9063 28.228 59.1863 28.144 59.5036 28.032L59.1676 30.692C58.8689 30.8787 58.4769 31.0187 57.9916 31.112C57.5063 31.224 57.0303 31.28 56.5636 31.28C55.2009 31.28 54.2023 30.9533 53.5676 30.3C52.9516 29.628 52.6436 28.564 52.6436 27.108V10.868H56.4796V26.548ZM70.7528 30.132C70.3048 30.4867 69.7355 30.7667 69.0448 30.972C68.3728 31.1773 67.6635 31.28 66.9168 31.28C63.7995 31.28 62.2408 29.8707 62.2408 27.052V19.856H59.6928V17H62.2408V13.78L66.0768 12.716V17H70.6128V19.856H66.0768V26.436C66.0768 27.724 66.7208 28.368 68.0088 28.368C68.8301 28.368 69.5488 28.1067 70.1648 27.584L70.7528 30.132ZM86.2287 23.944C86.2287 24.4667 86.1914 24.9707 86.1167 25.456H76.2047C76.5967 27.4347 77.7634 28.424 79.7047 28.424C80.5074 28.424 81.1701 28.2747 81.6927 27.976C82.2154 27.6773 82.5794 27.248 82.7847 26.688L85.9207 27.836C85.4727 28.956 84.7167 29.8147 83.6527 30.412C82.6074 30.9907 81.2914 31.28 79.7047 31.28C77.3901 31.28 75.5981 30.6453 74.3287 29.376C73.0594 28.088 72.4247 26.296 72.4247 24C72.4247 21.704 73.0407 19.9213 74.2727 18.652C75.5047 17.364 77.2407 16.72 79.4807 16.72C81.6461 16.72 83.3074 17.3453 84.4647 18.596C85.6407 19.8467 86.2287 21.6293 86.2287 23.944ZM79.4527 19.548C78.5194 19.548 77.7727 19.8187 77.2127 20.36C76.6714 20.9013 76.3261 21.704 76.1767 22.768H82.7007C82.5514 21.7227 82.1967 20.9293 81.6367 20.388C81.0767 19.828 80.3487 19.548 79.4527 19.548ZM97.3736 16.72C98.0269 16.72 98.5309 16.8227 98.8856 17.028L98.4096 20.388C97.9803 20.108 97.3923 19.968 96.6456 19.968C95.7309 19.968 94.9376 20.304 94.2656 20.976C93.6123 21.6293 93.2856 22.5533 93.2856 23.748V31H89.4496V17H92.7816L93.0336 19.744C93.7989 17.728 95.2456 16.72 97.3736 16.72ZM103.194 14.984C101.607 14.984 100.814 14.3027 100.814 12.94C100.814 11.5587 101.607 10.868 103.194 10.868C104.781 10.868 105.574 11.5587 105.574 12.94C105.574 14.3027 104.781 14.984 103.194 14.984ZM105.098 31H101.262V17H105.098V31ZM115.604 16.72C117.863 16.72 119.618 17.364 120.868 18.652C122.138 19.94 122.772 21.7227 122.772 24C122.772 26.2773 122.138 28.06 120.868 29.348C119.618 30.636 117.863 31.28 115.604 31.28C113.346 31.28 111.582 30.636 110.312 29.348C109.062 28.06 108.436 26.2773 108.436 24C108.436 21.7227 109.062 19.94 110.312 18.652C111.582 17.364 113.346 16.72 115.604 16.72ZM115.604 19.576C114.522 19.576 113.691 19.9493 113.112 20.696C112.552 21.424 112.272 22.5253 112.272 24C112.272 25.4747 112.552 26.5853 113.112 27.332C113.691 28.06 114.522 28.424 115.604 28.424C116.687 28.424 117.508 28.06 118.068 27.332C118.647 26.5853 118.936 25.4747 118.936 24C118.936 22.5253 118.647 21.424 118.068 20.696C117.508 19.9493 116.687 19.576 115.604 19.576ZM133.987 16.72C134.64 16.72 135.144 16.8227 135.499 17.028L135.023 20.388C134.594 20.108 134.006 19.968 133.259 19.968C132.344 19.968 131.551 20.304 130.879 20.976C130.226 21.6293 129.899 22.5533 129.899 23.748V31H126.063V17H129.395L129.647 19.744C130.412 17.728 131.859 16.72 133.987 16.72Z" fill="black"/>
<path d="M139.807 26.716C140.554 26.716 141.142 26.9213 141.571 27.332C142.019 27.7427 142.243 28.2933 142.243 28.984C142.243 29.6747 142.019 30.2253 141.571 30.636C141.142 31.0467 140.554 31.252 139.807 31.252C139.061 31.252 138.463 31.056 138.015 30.664C137.586 30.2533 137.371 29.6933 137.371 28.984C137.371 28.2747 137.586 27.724 138.015 27.332C138.463 26.9213 139.061 26.716 139.807 26.716Z" fill="#F8122D"/>
</svg>
